# xmcd
#
# Track frame offsets:
#   150
#   14075
#   25628
#   37044
#   45740
#   85379
#   98011
#   110433
#   124695
#   134690
#   196403
#   208649
#
# Disc length: 2955 seconds
#
# Revision: 0
# Processed by: cddbd v1.5.2PL0 Copyright (c) Steve Scherf et al.
# Submitted via: GXTranscoder 2.0.1939
#
DISCID=a60b890c
DTITLE=artist - die kleine Wolke
DYEAR=1900
DGENRE=Children's Music
TTITLE0=Die Weidenkätzchen - Ich geh`mit meiner Laterne
TTITLE1=Die Weidenkätzchen - Taler Taler,du musst wandern
TTITLE2=Die Weidenkätzchen Sur La Pont dÀvignon
TTITLE3=Die Weidenkätzchen - Dornröschen war ein schönes K
TTITLE4=Edgar Eule - Die kleine weiße Wolke
TTITLE5=Die Weidenkätzchen - A,B,C,die Katze lief im Schne
TTITLE6=Die Weidenkätzchen Auf der Mauer.auf der Lauer
TTITLE7=Die weidenkätzchen - Der Mai ist gekommen
TTITLE8=Die Weidenkätzchen - Zwischen Berg und tiefem,tief
TTITLE9=Edgar Eule - Rummel Bummel
TTITLE10=Die Weidenkätzchen - Stille Nacht,kein Geräusch ge
TTITLE11=Die Weidenkätzchen -Nun schlaf,mein liebes Kindlei
EXTD=
EXTT0=
EXTT1=
EXTT2=
EXTT3=
EXTT4=
EXTT5=
EXTT6=
EXTT7=
EXTT8=
EXTT9=
EXTT10=
EXTT11=
PLAYORDER=
